<svg xmlns="http://www.w3.org/2000/svg" width="1200" height="630" viewBox="0 0 1200 630">
  <defs>
    <linearGradient id="g1" x1="0%" y1="0%" x2="100%" y2="0%">
      <stop offset="0%" stop-color="#6C5CE7"/>
      <stop offset="100%" stop-color="#38BDF8"/>
    </linearGradient>
    <radialGradient id="g2" cx="20%" cy="20%" r="60%">
      <stop offset="0%" stop-color="#6C5CE7" stop-opacity="0.35"/>
      <stop offset="100%" stop-color="#05060A" stop-opacity="0"/>
    </radialGradient>
  </defs>
  <rect width="1200" height="630" fill="#05060A"/>
  <rect width="1200" height="630" fill="url(#g2)"/>
  <g fill="none" stroke="rgba(255,255,255,0.06)" stroke-width="1">
    <path d="M0 90h1200M0 180h1200M0 270h1200M0 360h1200M0 450h1200M0 540h1200"/>
    <path d="M100 0v630M250 0v630M400 0v630M550 0v630M700 0v630M850 0v630M1000 0v630"/>
  </g>
  <g transform="translate(140 180)">
    <rect x="0" y="0" width="360" height="270" rx="28" fill="#0F111A" stroke="rgba(255,255,255,0.1)" />
    <rect x="24" y="36" width="312" height="14" rx="7" fill="url(#g1)" opacity="0.9"/>
    <rect x="24" y="84" width="240" height="14" rx="7" fill="#6C5CE7" opacity="0.8"/>
    <rect x="24" y="132" width="280" height="14" rx="7" fill="#38BDF8" opacity="0.7"/>
    <rect x="24" y="180" width="180" height="14" rx="7" fill="#A29BFE" opacity="0.8"/>
  </g>
  <g transform="translate(580 200)">
    <text x="0" y="0" fill="#AAB5CC" font-family="Inter, system-ui" font-size="14" letter-spacing="0.28em">ANALYTIC GENIE</text>
    <text x="0" y="48" fill="#FFFFFF" font-family="Inter, system-ui" font-size="44" font-weight="700">Turn data into decisions</text>
    <text x="0" y="98" fill="#7DD3FC" font-family="Inter, system-ui" font-size="36" font-weight="700">instantly.</text>
    <text x="0" y="148" fill="#C9D2E5" font-family="Inter, system-ui" font-size="18" opacity="0.85">
      AI-powered analytics with explainability, real-time signals, and automation.
    </text>
  </g>
</svg>

